<?xml version="1.0" encoding="UTF-8" standalone="no"?>
<!DOCTYPE svg PUBLIC "-//W3C//DTD SVG 1.1//EN"
 "http://www.w3.org/Graphics/SVG/1.1/DTD/svg11.dtd">
<!-- Generated by graphviz version 2.26.3 (20100126.1600)
 -->
<!-- Title: G Pages: 1 -->
<svg width="662pt" height="657pt"
 viewBox="0.00 0.00 662.00 657.00" xmlns="http://www.w3.org/2000/svg" xmlns:xlink="http://www.w3.org/1999/xlink">
<g id="graph1" class="graph" transform="scale(1 1) rotate(0) translate(4 653)">
<title>G</title>
<polygon fill="white" stroke="white" points="-4,5 -4,-653 659,-653 659,5 -4,5"/>
<!-- main -->
<g id="node1" class="node"><title>main</title>
<polygon fill="Wheat" stroke="black" points="56,-490 2.84217e-14,-490 3.55271e-15,-454 56,-454 56,-490"/>
<text text-anchor="middle" x="28" y="-467.6" font-family="Times Roman,serif" font-size="16.00" fill="blue">main</text>
</g>
<!-- log_init -->
<g id="node3" class="node"><title>log_init</title>
<polygon fill="Wheat" stroke="black" points="394,-614 320,-614 320,-578 394,-578 394,-614"/>
<text text-anchor="middle" x="357" y="-591.6" font-family="Times Roman,serif" font-size="16.00" fill="blue">log_init</text>
</g>
<!-- main&#45;&gt;log_init -->
<g id="edge2" class="edge"><title>main&#45;&gt;log_init</title>
<path fill="none" stroke="black" d="M50.4168,-490.333C79.0721,-512.729 131.09,-549.977 182,-569 223.411,-584.473 273.519,-591.083 309.486,-593.904"/>
<polygon fill="black" stroke="black" points="309.478,-597.412 319.701,-594.633 309.976,-590.43 309.478,-597.412"/>
</g>
<!-- test  -->
<g id="node5" class="node"><title>test </title>
<polygon fill="Wheat" stroke="black" points="146,-425 92,-425 92,-389 146,-389 146,-425"/>
<text text-anchor="middle" x="119" y="-402.6" font-family="Times Roman,serif" font-size="16.00" fill="blue">test </text>
</g>
<!-- main&#45;&gt;test  -->
<g id="edge4" class="edge"><title>main&#45;&gt;test </title>
<path fill="none" stroke="black" d="M53.3486,-453.894C63.3078,-446.78 74.8813,-438.513 85.5123,-430.92"/>
<polygon fill="black" stroke="black" points="87.6844,-433.67 93.7874,-425.009 83.6157,-427.973 87.6844,-433.67"/>
</g>
<!-- test &#45;&gt;log_init -->
<g id="edge40" class="edge"><title>test &#45;&gt;log_init</title>
<path fill="none" stroke="black" d="M120.345,-425.245C123.906,-459.358 136.703,-532.632 182,-569 217.715,-597.675 271.135,-602.118 309.553,-600.822"/>
<polygon fill="black" stroke="black" points="310.144,-604.298 319.964,-600.32 309.807,-597.306 310.144,-604.298"/>
</g>
<!-- util_big_endian -->
<g id="node7" class="node"><title>util_big_endian</title>
<polygon fill="Wheat" stroke="black" points="425,-506 289,-506 289,-470 425,-470 425,-506"/>
<text text-anchor="middle" x="357" y="-483.6" font-family="Times Roman,serif" font-size="16.00" fill="blue">util_big_endian</text>
</g>
<!-- test &#45;&gt;util_big_endian -->
<g id="edge6" class="edge"><title>test &#45;&gt;util_big_endian</title>
<path fill="none" stroke="black" d="M134.796,-425.026C146.552,-437.217 163.675,-452.577 182,-461 211.867,-474.728 247.315,-481.699 278.471,-485.162"/>
<polygon fill="black" stroke="black" points="278.122,-488.644 288.423,-486.167 278.825,-481.68 278.122,-488.644"/>
</g>
<!-- log -->
<g id="node9" class="node"><title>log</title>
<polygon fill="Wheat" stroke="black" points="384,-452 330,-452 330,-416 384,-416 384,-452"/>
<text text-anchor="middle" x="357" y="-429.6" font-family="Times Roman,serif" font-size="16.00" fill="blue">log</text>
</g>
<!-- test &#45;&gt;log -->
<g id="edge8" class="edge"><title>test &#45;&gt;log</title>
<path fill="none" stroke="black" d="M146.302,-410.097C188.959,-414.937 271.504,-424.301 319.64,-429.762"/>
<polygon fill="black" stroke="black" points="319.32,-433.248 329.651,-430.897 320.11,-426.292 319.32,-433.248"/>
</g>
<!-- util_test  -->
<g id="node11" class="node"><title>util_test </title>
<polygon fill="Wheat" stroke="black" points="400,-398 314,-398 314,-362 400,-362 400,-398"/>
<text text-anchor="middle" x="357" y="-375.6" font-family="Times Roman,serif" font-size="16.00" fill="blue">util_test </text>
</g>
<!-- test &#45;&gt;util_test  -->
<g id="edge10" class="edge"><title>test &#45;&gt;util_test </title>
<path fill="none" stroke="black" d="M146.302,-403.903C184.603,-399.558 255.061,-391.565 303.896,-386.024"/>
<polygon fill="black" stroke="black" points="304.427,-389.487 313.969,-384.882 303.638,-382.531 304.427,-389.487"/>
</g>
<!-- bzero -->
<g id="node17" class="node"><title>bzero</title>
<polygon fill="Wheat" stroke="black" points="387,-344 327,-344 327,-308 387,-308 387,-344"/>
<text text-anchor="middle" x="357" y="-321.6" font-family="Times Roman,serif" font-size="16.00" fill="blue">bzero</text>
</g>
<!-- test &#45;&gt;bzero -->
<g id="edge16" class="edge"><title>test &#45;&gt;bzero</title>
<path fill="none" stroke="black" d="M134.796,-388.974C146.552,-376.783 163.675,-361.423 182,-353 224.964,-333.251 279.476,-327.487 316.149,-326.032"/>
<polygon fill="black" stroke="black" points="316.57,-329.521 326.459,-325.718 316.357,-322.524 316.57,-329.521"/>
</g>
<!-- mbtk_http_add_header_item  -->
<g id="node19" class="node"><title>mbtk_http_add_header_item </title>
<polygon fill="Wheat" stroke="black" points="480,-252 234,-252 234,-216 480,-216 480,-252"/>
<text text-anchor="middle" x="357" y="-229.6" font-family="Times Roman,serif" font-size="16.00" fill="blue">mbtk_http_add_header_item </text>
</g>
<!-- test &#45;&gt;mbtk_http_add_header_item  -->
<g id="edge18" class="edge"><title>test &#45;&gt;mbtk_http_add_header_item </title>
<path fill="none" stroke="black" d="M121.669,-388.541C127.128,-357.928 142.568,-296.967 182,-266 194.472,-256.206 208.98,-249.053 224.206,-243.876"/>
<polygon fill="black" stroke="black" points="225.259,-247.214 233.768,-240.902 223.18,-240.53 225.259,-247.214"/>
</g>
<!-- free -->
<g id="node28" class="node"><title>free</title>
<polygon fill="Wheat" stroke="black" points="638,-306 584,-306 584,-270 638,-270 638,-306"/>
<text text-anchor="middle" x="611" y="-283.6" font-family="Times Roman,serif" font-size="16.00" fill="blue">free</text>
</g>
<!-- test &#45;&gt;free -->
<g id="edge42" class="edge"><title>test &#45;&gt;free</title>
<path fill="none" stroke="black" d="M123.594,-388.935C131.081,-363.702 148.558,-318.783 182,-299 247.537,-260.232 481.923,-276.361 573.735,-284.436"/>
<polygon fill="black" stroke="black" points="573.678,-287.945 583.951,-285.354 574.304,-280.973 573.678,-287.945"/>
</g>
<!-- mbtk_http_get_request_head_item_string  -->
<g id="node30" class="node"><title>mbtk_http_get_request_head_item_string </title>
<polygon fill="Wheat" stroke="black" points="531,-144 183,-144 183,-108 531,-108 531,-144"/>
<text text-anchor="middle" x="357" y="-121.6" font-family="Times Roman,serif" font-size="16.00" fill="blue">mbtk_http_get_request_head_item_string </text>
</g>
<!-- test &#45;&gt;mbtk_http_get_request_head_item_string  -->
<g id="edge30" class="edge"><title>test &#45;&gt;mbtk_http_get_request_head_item_string </title>
<path fill="none" stroke="black" d="M119.929,-388.9C122.806,-350.715 134.525,-260.995 182,-207 206.547,-179.082 242.723,-160.144 275.822,-147.648"/>
<polygon fill="black" stroke="black" points="277.311,-150.831 285.52,-144.133 274.926,-144.25 277.311,-150.831"/>
</g>
<!-- my_printf  -->
<g id="node40" class="node"><title>my_printf </title>
<polygon fill="Wheat" stroke="black" points="406,-560 308,-560 308,-524 406,-524 406,-560"/>
<text text-anchor="middle" x="357" y="-537.6" font-family="Times Roman,serif" font-size="16.00" fill="blue">my_printf </text>
</g>
<!-- test &#45;&gt;my_printf  -->
<g id="edge44" class="edge"><title>test &#45;&gt;my_printf </title>
<path fill="none" stroke="black" d="M124.223,-425.328C132.284,-450.023 150.244,-493.372 182,-515 215.648,-537.916 261.313,-544.348 297.558,-545.219"/>
<polygon fill="black" stroke="black" points="297.961,-548.723 307.996,-545.324 298.032,-541.723 297.961,-548.723"/>
</g>
<!-- memset -->
<g id="node13" class="node"><title>memset</title>
<polygon fill="Wheat" stroke="black" points="651,-414 571,-414 571,-378 651,-378 651,-414"/>
<text text-anchor="middle" x="611" y="-391.6" font-family="Times Roman,serif" font-size="16.00" fill="blue">memset</text>
</g>
<!-- util_test &#45;&gt;memset -->
<g id="edge12" class="edge"><title>util_test &#45;&gt;memset</title>
<path fill="none" stroke="black" d="M400.088,-382.714C444.432,-385.508 513.482,-389.857 560.397,-392.812"/>
<polygon fill="black" stroke="black" points="560.441,-396.322 570.641,-393.458 560.881,-389.336 560.441,-396.322"/>
</g>
<!-- memcpy -->
<g id="node15" class="node"><title>memcpy</title>
<polygon fill="Wheat" stroke="black" points="653,-360 569,-360 569,-324 653,-324 653,-360"/>
<text text-anchor="middle" x="611" y="-337.6" font-family="Times Roman,serif" font-size="16.00" fill="blue">memcpy</text>
</g>
<!-- util_test &#45;&gt;memcpy -->
<g id="edge14" class="edge"><title>util_test &#45;&gt;memcpy</title>
<path fill="none" stroke="black" d="M400.088,-373.554C443.734,-367.024 511.314,-356.914 558.165,-349.904"/>
<polygon fill="black" stroke="black" points="558.754,-353.355 568.126,-348.414 557.718,-346.432 558.754,-353.355"/>
</g>
<!-- mbtk_http_add_header_item &#45;&gt;memcpy -->
<g id="edge26" class="edge"><title>mbtk_http_add_header_item &#45;&gt;memcpy</title>
<path fill="none" stroke="black" d="M411.811,-252.096C446.72,-264.173 492.618,-281.079 532,-299 544.912,-304.875 558.608,-311.996 570.906,-318.738"/>
<polygon fill="black" stroke="black" points="569.56,-321.994 580.001,-323.792 572.96,-315.875 569.56,-321.994"/>
</g>
<!-- strcmp -->
<g id="node21" class="node"><title>strcmp</title>
<polygon fill="Wheat" stroke="black" points="646,-252 576,-252 576,-216 646,-216 646,-252"/>
<text text-anchor="middle" x="611" y="-229.6" font-family="Times Roman,serif" font-size="16.00" fill="blue">strcmp</text>
</g>
<!-- mbtk_http_add_header_item &#45;&gt;strcmp -->
<g id="edge20" class="edge"><title>mbtk_http_add_header_item &#45;&gt;strcmp</title>
<path fill="none" stroke="black" d="M480.28,-234C510.558,-234 541.119,-234 565.07,-234"/>
<polygon fill="black" stroke="black" points="565.246,-237.5 575.246,-234 565.246,-230.5 565.246,-237.5"/>
</g>
<!-- calloc -->
<g id="node23" class="node"><title>calloc</title>
<polygon fill="Wheat" stroke="black" points="642,-198 580,-198 580,-162 642,-162 642,-198"/>
<text text-anchor="middle" x="611" y="-175.6" font-family="Times Roman,serif" font-size="16.00" fill="blue">calloc</text>
</g>
<!-- mbtk_http_add_header_item &#45;&gt;calloc -->
<g id="edge22" class="edge"><title>mbtk_http_add_header_item &#45;&gt;calloc</title>
<path fill="none" stroke="black" d="M441.931,-215.944C484.67,-206.858 534.573,-196.248 569.03,-188.923"/>
<polygon fill="black" stroke="black" points="570.149,-192.263 579.203,-186.76 568.693,-185.416 570.149,-192.263"/>
</g>
<!-- strlen -->
<g id="node25" class="node"><title>strlen</title>
<polygon fill="Wheat" stroke="black" points="642,-144 580,-144 580,-108 642,-108 642,-144"/>
<text text-anchor="middle" x="611" y="-121.6" font-family="Times Roman,serif" font-size="16.00" fill="blue">strlen</text>
</g>
<!-- mbtk_http_add_header_item &#45;&gt;strlen -->
<g id="edge24" class="edge"><title>mbtk_http_add_header_item &#45;&gt;strlen</title>
<path fill="none" stroke="black" d="M399.514,-215.923C447.21,-195.643 524.004,-162.991 570.754,-143.113"/>
<polygon fill="black" stroke="black" points="572.136,-146.328 579.969,-139.194 569.397,-139.886 572.136,-146.328"/>
</g>
<!-- mbtk_http_add_header_item &#45;&gt;free -->
<g id="edge28" class="edge"><title>mbtk_http_add_header_item &#45;&gt;free</title>
<path fill="none" stroke="black" d="M464.207,-252.012C486.681,-256.233 510.178,-260.977 532,-266 545.82,-269.181 560.846,-273.217 574.047,-276.962"/>
<polygon fill="black" stroke="black" points="573.158,-280.348 583.736,-279.749 575.093,-273.621 573.158,-280.348"/>
</g>
<!-- mbtk_http_get_request_head_item_string &#45;&gt;calloc -->
<g id="edge36" class="edge"><title>mbtk_http_get_request_head_item_string &#45;&gt;calloc</title>
<path fill="none" stroke="black" d="M441.931,-144.056C484.67,-153.142 534.573,-163.752 569.03,-171.077"/>
<polygon fill="black" stroke="black" points="568.693,-174.584 579.203,-173.24 570.149,-167.737 568.693,-174.584"/>
</g>
<!-- mbtk_http_get_request_head_item_string &#45;&gt;strlen -->
<g id="edge34" class="edge"><title>mbtk_http_get_request_head_item_string &#45;&gt;strlen</title>
<path fill="none" stroke="black" d="M531.678,-126C545.403,-126 558.26,-126 569.462,-126"/>
<polygon fill="black" stroke="black" points="569.669,-129.5 579.669,-126 569.669,-122.5 569.669,-129.5"/>
</g>
<!-- log_i -->
<g id="node32" class="node"><title>log_i</title>
<polygon fill="Wheat" stroke="black" points="638,-90 584,-90 584,-54 638,-54 638,-90"/>
<text text-anchor="middle" x="611" y="-67.6" font-family="Times Roman,serif" font-size="16.00" fill="blue">log_i</text>
</g>
<!-- mbtk_http_get_request_head_item_string &#45;&gt;log_i -->
<g id="edge32" class="edge"><title>mbtk_http_get_request_head_item_string &#45;&gt;log_i</title>
<path fill="none" stroke="black" d="M441.931,-107.944C486.63,-98.4409 539.167,-87.2717 573.672,-79.9358"/>
<polygon fill="black" stroke="black" points="574.72,-83.2914 583.773,-77.7884 573.264,-76.4444 574.72,-83.2914"/>
</g>
<!-- sprintf -->
<g id="node36" class="node"><title>sprintf</title>
<polygon fill="Wheat" stroke="black" points="645,-36 577,-36 577,-1.77636e-14 645,-3.55271e-15 645,-36"/>
<text text-anchor="middle" x="611" y="-13.6" font-family="Times Roman,serif" font-size="16.00" fill="blue">sprintf</text>
</g>
<!-- mbtk_http_get_request_head_item_string &#45;&gt;sprintf -->
<g id="edge38" class="edge"><title>mbtk_http_get_request_head_item_string &#45;&gt;sprintf</title>
<path fill="none" stroke="black" d="M399.514,-107.923C446.153,-88.0922 520.614,-56.4317 567.602,-36.4527"/>
<polygon fill="black" stroke="black" points="569.071,-39.6314 576.904,-32.4975 566.332,-33.1895 569.071,-39.6314"/>
</g>
<!-- va_start -->
<g id="node42" class="node"><title>va_start</title>
<polygon fill="Wheat" stroke="black" points="651,-649 571,-649 571,-613 651,-613 651,-649"/>
<text text-anchor="middle" x="611" y="-626.6" font-family="Times Roman,serif" font-size="16.00" fill="blue">va_start</text>
</g>
<!-- my_printf &#45;&gt;va_start -->
<g id="edge46" class="edge"><title>my_printf &#45;&gt;va_start</title>
<path fill="none" stroke="black" d="M406.19,-541.68C442.659,-543.27 492.652,-549.397 532,-569 551.974,-578.951 550.453,-590.213 568,-604 569.334,-605.048 570.711,-606.092 572.116,-607.125"/>
<polygon fill="black" stroke="black" points="570.177,-610.04 580.38,-612.895 574.185,-604.3 570.177,-610.04"/>
</g>
<!-- va_arg -->
<g id="node44" class="node"><title>va_arg</title>
<polygon fill="Wheat" stroke="black" points="645,-595 577,-595 577,-559 645,-559 645,-595"/>
<text text-anchor="middle" x="611" y="-572.6" font-family="Times Roman,serif" font-size="16.00" fill="blue">va_arg</text>
</g>
<!-- my_printf &#45;&gt;va_arg -->
<g id="edge48" class="edge"><title>my_printf &#45;&gt;va_arg</title>
<path fill="none" stroke="black" d="M406.275,-548.79C452.584,-555.171 521.296,-564.639 566.118,-570.815"/>
<polygon fill="black" stroke="black" points="565.751,-574.298 576.135,-572.196 566.706,-567.363 565.751,-574.298"/>
</g>
<!-- printf -->
<g id="node46" class="node"><title>printf</title>
<polygon fill="Wheat" stroke="black" points="640,-541 582,-541 582,-505 640,-505 640,-541"/>
<text text-anchor="middle" x="611" y="-518.6" font-family="Times Roman,serif" font-size="16.00" fill="blue">printf</text>
</g>
<!-- my_printf &#45;&gt;printf -->
<g id="edge50" class="edge"><title>my_printf &#45;&gt;printf</title>
<path fill="none" stroke="black" d="M406.275,-538.314C454.356,-534.717 526.588,-529.314 571.156,-525.98"/>
<polygon fill="black" stroke="black" points="571.604,-529.457 581.315,-525.221 571.082,-522.476 571.604,-529.457"/>
</g>
<!-- va_end -->
<g id="node48" class="node"><title>va_end</title>
<polygon fill="Wheat" stroke="black" points="647,-487 575,-487 575,-451 647,-451 647,-487"/>
<text text-anchor="middle" x="611" y="-464.6" font-family="Times Roman,serif" font-size="16.00" fill="blue">va_end</text>
</g>
<!-- my_printf &#45;&gt;va_end -->
<g id="edge52" class="edge"><title>my_printf &#45;&gt;va_end</title>
<path fill="none" stroke="black" d="M406.099,-539.338C441.853,-536.232 490.994,-529.514 532,-515 540.647,-511.939 557.592,-502.264 573.579,-492.571"/>
<polygon fill="black" stroke="black" points="575.604,-495.435 582.303,-487.227 571.947,-489.466 575.604,-495.435"/>
</g>
</g>
</svg>
